<?xml version="1.0" encoding="utf-8"?>
<!-- Generator: Adobe Illustrator 26.0.3, SVG Export Plug-In . SVG Version: 6.00 Build 0)  -->
<svg version="1.1" id="Layer_1" xmlns="http://www.w3.org/2000/svg" xmlns:xlink="http://www.w3.org/1999/xlink" x="0px" y="0px"
	 viewBox="0 0 24 24" style="enable-background:new 0 0 24 24;" xml:space="preserve">
<style type="text/css">
	.st0{fill:none;stroke:#000000;stroke-width:2;stroke-linecap:round;stroke-linejoin:round;}
</style>
<path class="st0" d="M3.7,13c-0.9-1.4-1.4-2.7-1.4-4.2c0-3.1,2.4-5.5,5.5-5.5c1.7,0,3.4,1,4.5,2.6c1.1-1.5,2.8-2.6,4.5-2.6
	c3.1,0,5.5,2.4,5.5,5.5c0,3.8-3.4,6.9-8.6,11.5l-1.4,1.3l-1.4-1.3c-1.7-1.5-3.2-2.9-4.4-4.1"/>
<path d="M5.1,15.7l0.8,3.1c0.1,0.5,0.8,0.7,1.1,0.3l2.3-2.3c0.4-0.4,0.2-1-0.3-1.1l-3.1-0.8C5.4,14.7,5,15.2,5.1,15.7z"/>
</svg>
